<svg xmlns="http://www.w3.org/2000/svg" xmlns:svg="http://www.w3.org/2000/svg" id="svg8" width="282.685" height="282.46" version="1.1" viewBox="0 0 74.794 74.734"><metadata id="metadata5"/><g id="layer1" transform="translate(-16.02424,-53.31274)"><path style="opacity:1;fill:#000;fill-opacity:1;fill-rule:evenodd;stroke:none;stroke-width:3;stroke-linecap:square;stroke-linejoin:round;stroke-miterlimit:4;stroke-dasharray:none;stroke-dashoffset:0;stroke-opacity:.99742886;paint-order:normal" id="path815" d="M 34.497221,122.98063 C 13.060807,111.59147 9.5057745,78.889774 27.920543,63.12255 45.120441,46.013693 77.427258,52.216718 87.056391,74.488888 98.339707,95.97344 82.881638,125.0092 58.757819,127.64369 c -8.27367,1.24268 -16.938837,-0.41172 -24.172997,-4.61233"/><path style="opacity:1;fill:#fff;fill-opacity:1;fill-rule:evenodd;stroke:none;stroke-width:3;stroke-linecap:square;stroke-linejoin:round;stroke-miterlimit:4;stroke-dasharray:none;stroke-dashoffset:0;stroke-opacity:.99742886;paint-order:normal" id="path817" d="m 27.985531,81.482334 c -3.598684,-1.837468 -2.75494,-7.815373 1.214304,-8.581598 3.799463,-1.170463 7.355591,3.548866 5.184259,6.878699 -1.216276,2.203054 -4.232144,3.01098 -6.387614,1.709241"/><path style="opacity:1;fill:#fff;fill-opacity:1;fill-rule:evenodd;stroke:none;stroke-width:3;stroke-linecap:square;stroke-linejoin:round;stroke-miterlimit:4;stroke-dasharray:none;stroke-dashoffset:0;stroke-opacity:.99742886;paint-order:normal" id="path817-8" d="m 43.086264,81.615971 c -3.598684,-1.837468 -2.754941,-7.815374 1.214304,-8.581598 3.799463,-1.170464 7.355591,3.548865 5.184259,6.878698 -1.216276,2.203054 -4.232144,3.01098 -6.387614,1.709241"/><path style="opacity:1;fill:#fff;fill-opacity:1;fill-rule:evenodd;stroke:none;stroke-width:3;stroke-linecap:square;stroke-linejoin:round;stroke-miterlimit:4;stroke-dasharray:none;stroke-dashoffset:0;stroke-opacity:.99742886;paint-order:normal" id="path817-6" d="m 58.053354,81.34869 c -3.598683,-1.837468 -2.75494,-7.815373 1.214305,-8.581598 3.799463,-1.170463 7.355591,3.548866 5.184259,6.878699 -1.216277,2.203054 -4.232144,3.01098 -6.387614,1.709241"/><path style="opacity:1;fill:#fff;fill-opacity:1;fill-rule:evenodd;stroke:none;stroke-width:3;stroke-linecap:square;stroke-linejoin:round;stroke-miterlimit:4;stroke-dasharray:none;stroke-dashoffset:0;stroke-opacity:.99742886;paint-order:normal" id="path817-82" d="m 71.951376,80.947788 c -3.598683,-1.837468 -2.75494,-7.815373 1.214304,-8.581597 3.799464,-1.170464 7.355592,3.548865 5.18426,6.878698 -1.216277,2.203054 -4.232144,3.01098 -6.387614,1.709241"/><path style="opacity:1;fill:#fff;fill-opacity:1;fill-rule:evenodd;stroke:none;stroke-width:3;stroke-linecap:square;stroke-linejoin:round;stroke-miterlimit:4;stroke-dasharray:none;stroke-dashoffset:0;stroke-opacity:.99742886;paint-order:normal" id="path817-3" d="m 26.114647,105.40295 c -3.598684,-1.83747 -2.75494,-7.815373 1.214304,-8.581597 3.799463,-1.170464 7.355591,3.548867 5.18426,6.878697 -1.216277,2.20306 -4.232145,3.01098 -6.387614,1.70924"/><path style="opacity:1;fill:#fff;fill-opacity:1;fill-rule:evenodd;stroke:none;stroke-width:3;stroke-linecap:square;stroke-linejoin:round;stroke-miterlimit:4;stroke-dasharray:none;stroke-dashoffset:0;stroke-opacity:.99742886;paint-order:normal" id="path817-4" d="m 41.883551,106.20475 c -3.598684,-1.83746 -2.754941,-7.81537 1.214304,-8.581594 3.799463,-1.170463 7.355591,3.548864 5.184259,6.878694 -1.216276,2.20306 -4.232144,3.01098 -6.387614,1.70925"/><path style="opacity:1;fill:#fff;fill-opacity:1;fill-rule:evenodd;stroke:none;stroke-width:3;stroke-linecap:square;stroke-linejoin:round;stroke-miterlimit:4;stroke-dasharray:none;stroke-dashoffset:0;stroke-opacity:.99742886;paint-order:normal" id="path817-2" d="m 58.721529,105.40295 c -3.598683,-1.83747 -2.75494,-7.815373 1.214305,-8.581597 3.799463,-1.170464 7.355591,3.548867 5.184259,6.878697 -1.216277,2.20306 -4.232144,3.01098 -6.387614,1.70924"/><path style="opacity:1;fill:#fff;fill-opacity:1;fill-rule:evenodd;stroke:none;stroke-width:3;stroke-linecap:square;stroke-linejoin:round;stroke-miterlimit:4;stroke-dasharray:none;stroke-dashoffset:0;stroke-opacity:.99742886;paint-order:normal" id="path817-9" d="m 75.158606,105.40297 c -3.598684,-1.83747 -2.754941,-7.815378 1.214304,-8.581602 3.799463,-1.170464 7.355591,3.548862 5.184259,6.878702 -1.216276,2.20305 -4.232144,3.01098 -6.387614,1.70924"/><path style="opacity:1;fill:#fff;fill-opacity:1;fill-rule:evenodd;stroke:none;stroke-width:3;stroke-linecap:square;stroke-linejoin:round;stroke-miterlimit:4;stroke-dasharray:none;stroke-dashoffset:0;stroke-opacity:.99742886;paint-order:normal" id="path817-40" d="m 49.901636,67.851586 c -3.598683,-1.837468 -2.75494,-7.815374 1.214305,-8.581598 3.799463,-1.170464 7.355591,3.548865 5.184259,6.878698 -1.216277,2.203054 -4.232144,3.01098 -6.387614,1.709241"/><path style="opacity:1;fill:#fff;fill-opacity:1;fill-rule:evenodd;stroke:none;stroke-width:3;stroke-linecap:square;stroke-linejoin:round;stroke-miterlimit:4;stroke-dasharray:none;stroke-dashoffset:0;stroke-opacity:.99742886;paint-order:normal" id="path817-48" d="m 49.634367,120.37004 c -3.598683,-1.83746 -2.75494,-7.81537 1.214304,-8.58159 3.799464,-1.17047 7.355592,3.54886 5.18426,6.8787 -1.216277,2.20305 -4.232144,3.01098 -6.387614,1.70924"/><path style="opacity:1;fill:#fff;fill-opacity:1;fill-rule:evenodd;stroke:none;stroke-width:3;stroke-linecap:square;stroke-linejoin:round;stroke-miterlimit:4;stroke-dasharray:none;stroke-dashoffset:0;stroke-opacity:.99742886;paint-order:normal" id="path817-1" d="m 34.800905,94.177632 c -3.598683,-1.837468 -2.75494,-7.815374 1.214305,-8.581598 3.799463,-1.170464 7.355591,3.548865 5.184259,6.878698 -1.216277,2.203054 -4.232144,3.01098 -6.387614,1.709241"/><path style="opacity:1;fill:#fff;fill-opacity:1;fill-rule:evenodd;stroke:none;stroke-width:3;stroke-linecap:square;stroke-linejoin:round;stroke-miterlimit:4;stroke-dasharray:none;stroke-dashoffset:0;stroke-opacity:.99742886;paint-order:normal" id="path817-0" d="m 49.367098,94.177632 c -3.598684,-1.837468 -2.75494,-7.815374 1.214304,-8.581598 3.799463,-1.170464 7.355591,3.548865 5.184259,6.878698 -1.216276,2.203054 -4.232144,3.01098 -6.387614,1.709241"/><path style="opacity:1;fill:#fff;fill-opacity:1;fill-rule:evenodd;stroke:none;stroke-width:3;stroke-linecap:square;stroke-linejoin:round;stroke-miterlimit:4;stroke-dasharray:none;stroke-dashoffset:0;stroke-opacity:.99742886;paint-order:normal" id="path817-97" d="m 65.002363,93.643093 c -3.598683,-1.837468 -2.75494,-7.815373 1.214305,-8.581598 3.799463,-1.170463 7.355591,3.548866 5.184259,6.878699 -1.216277,2.203054 -4.232144,3.01098 -6.387614,1.709241"/></g></svg>